/* XPM */
static char * hide_inactive_xpm[] = {
"26 25 4 1",
" 	c None",
".	c #F7F7F7",
"+	c #E9E9E9",
"@	c #C3C3C3",
"..........................",
"..........................",
"..........................",
"..........................",
"..........................",
"..........................",
"..........................",
"..........................",
"..........................",
"..........................",
"..........................",
"..........................",
".........++++++++.........",
"........+@@@@@@@@+........",
"........+@@@@@@@@+........",
".........++++++++.........",
"..........................",
"..........................",
"..........................",
"..........................",
"..........................",
"..........................",
"..........................",
"..........................",
".........................."};
