/* XPM */
static char * left_inactive_xpm[] = {
"6 20 3 1",
" 	c None",
".	c #858585",
"+	c #F7F7F7",
".+++++",
".+++++",
".+++++",
".+++++",
".+++++",
".+++++",
".+++++",
".+++++",
".+++++",
".+++++",
".+++++",
".+++++",
".+++++",
".+++++",
".+++++",
".+++++",
".+++++",
".+++++",
".+++++",
".+++++"};
