/* XPM */
static char * menu_inactive_xpm[] = {
"16 25 3 1",
" 	c None",
".	c #F7F7F7",
"+	c #C3C3C3",
"................",
"................",
"................",
"................",
"................",
"................",
"................",
"................",
"................",
"................",
"....++++++++....",
"....++++++++....",
"................",
"................",
"....++++++++....",
"....++++++++....",
"................",
"................",
"................",
"................",
"................",
"................",
"................",
"................",
"................"};
