/* XPM */
static char * menu_active_xpm[] = {
"16 25 3 1",
" 	c None",
".	c #F7F7F7",
"+	c #787878",
"................",
"................",
"................",
"................",
"................",
"................",
"................",
"................",
"................",
"................",
"....++++++++....",
"....++++++++....",
"................",
"................",
"....++++++++....",
"....++++++++....",
"................",
"................",
"................",
"................",
"................",
"................",
"................",
"................",
"................"};
