/* XPM */
static char * maximize_toggled_active_xpm[] = {
"24 25 4 1",
" 	c None",
".	c #363636",
"+	c #373737",
"@	c #2B98DD",
"........................",
"++++++++++++++++++++++++",
"++++++++++++++++++++++++",
"++++++++++++++++++++++++",
"++++++++++++++++++++++++",
"++++++++++++++++++++++++",
"++++++++++++++++++++++++",
"++++++++++++++++++++++++",
"+++++++++++..+++++++++++",
"+++++++++++@@+++++++++++",
"+++++++++++@@+++++++++++",
"++++++++++.@@.++++++++++",
"+++++++.@@@@@@@@.+++++++",
"+++++++.@@@@@@@@.+++++++",
"++++++++++.@@.++++++++++",
"+++++++++++@@+++++++++++",
"+++++++++++@@+++++++++++",
"+++++++++++..+++++++++++",
"++++++++++++++++++++++++",
"++++++++++++++++++++++++",
"++++++++++++++++++++++++",
"++++++++++++++++++++++++",
"++++++++++++++++++++++++",
"++++++++++++++++++++++++",
"++++++++++++++++++++++++"};
