/* XPM */
static char * menu_prelight_xpm[] = {
"16 25 4 1",
" 	c None",
".	c #363636",
"+	c #373737",
"@	c #FAFAFA",
"................",
"++++++++++++++++",
"++++++++++++++++",
"++++++++++++++++",
"++++++++++++++++",
"++++++++++++++++",
"++++++++++++++++",
"++++++++++++++++",
"++++++++++++++++",
"++++++++++++++++",
"++++@@@@@@@@++++",
"++++@@@@@@@@++++",
"++++++++++++++++",
"++++++++++++++++",
"++++@@@@@@@@++++",
"++++@@@@@@@@++++",
"++++++++++++++++",
"++++++++++++++++",
"++++++++++++++++",
"++++++++++++++++",
"++++++++++++++++",
"++++++++++++++++",
"++++++++++++++++",
"++++++++++++++++",
"++++++++++++++++"};
