/* XPM */
static char * shade_pressed_xpm[] = {
"24 25 4 1",
" 	c None",
".	c #9D9E9E",
"+	c #A3A9B1",
"@	c #FF89F8",
"........................",
"++++++++++++++++++++++++",
"++++++++++++++++++++++++",
"++++++++++++++++++++++++",
"++++++++++++++++++++++++",
"++++++++++++++++++++++++",
"++++++++++++++++++++++++",
"++++++++++++++++++++++++",
"++++++++++++++++++++++++",
"++++++++++++++++++++++++",
"++++++++++++++++++++++++",
"+++++++++++@@+++++++++++",
"++++++++++@@@@++++++++++",
"+++++++++@@..@@+++++++++",
"++++++++@@.++.@@++++++++",
"++++++++..++++..++++++++",
"++++++++++++++++++++++++",
"++++++++++++++++++++++++",
"++++++++++++++++++++++++",
"++++++++++++++++++++++++",
"++++++++++++++++++++++++",
"++++++++++++++++++++++++",
"++++++++++++++++++++++++",
"++++++++++++++++++++++++",
"++++++++++++++++++++++++"};
