/* XPM */
static char * bottom_right_inactive_xpm[] = {
"16 16 4 1",
" 	c None",
".	c #F7F7F7",
"+	c #858585",
"@	c #A6A6A6",
"...............+",
"...............+",
"...............+",
"...............+",
"...............+",
"...............+",
"...............+",
"...............+",
"...............+",
"...............+",
"...............+",
"...............+",
"...............+",
"...............+",
"...............+",
"@@@@@@@@@@@@@@@+"};
