/* XPM */
static char * bottom_left_inactive_xpm[] = {
"16 16 3 1",
" 	c #858585",
".	c #F7F7F7",
"+	c #A6A6A6",
" ...............",
" ...............",
" ...............",
" ...............",
" ...............",
" ...............",
" ...............",
" ...............",
" ...............",
" ...............",
" ...............",
" ...............",
" ...............",
" ...............",
" ...............",
" +++++++++++++++"};
