/* XPM */
static char * bottom_active_xpm[] = {
"32 6 3 1",
" 	c None",
".	c #F7F7F7",
"+	c #A6A6A6",
"................................",
"................................",
"................................",
"................................",
"................................",
"++++++++++++++++++++++++++++++++"};
