/* XPM */
static char * bottom_right_active_xpm[] = {
"16 16 3 1",
" 	c #F7F7F7",
".	c #858585",
"+	c #A6A6A6",
"               .",
"               .",
"               .",
"               .",
"               .",
"               .",
"               .",
"               .",
"               .",
"               .",
"               .",
"               .",
"               .",
"               .",
"               .",
"+++++++++++++++."};
