/* XPM */
static char * bottom_left_active_xpm[] = {
"16 16 4 1",
" 	c None",
".	c #858585",
"+	c #F7F7F7",
"@	c #A6A6A6",
".+++++++++++++++",
".+++++++++++++++",
".+++++++++++++++",
".+++++++++++++++",
".+++++++++++++++",
".+++++++++++++++",
".+++++++++++++++",
".+++++++++++++++",
".+++++++++++++++",
".+++++++++++++++",
".+++++++++++++++",
".+++++++++++++++",
".+++++++++++++++",
".+++++++++++++++",
".+++++++++++++++",
".@@@@@@@@@@@@@@@"};
