/* XPM */
static char * right_active_xpm[] = {
"6 20 3 1",
" 	c None",
".	c #F7F7F7",
"+	c #858585",
".....+",
".....+",
".....+",
".....+",
".....+",
".....+",
".....+",
".....+",
".....+",
".....+",
".....+",
".....+",
".....+",
".....+",
".....+",
".....+",
".....+",
".....+",
".....+",
".....+"};
