/* XPM */
static char * shade_inactive_xpm[] = {
"24 25 4 1",
" 	c None",
".	c #F7F7F7",
"+	c #C3C3C3",
"@	c #E9E9E9",
"........................",
"........................",
"........................",
"........................",
"........................",
"........................",
"........................",
"........................",
"........................",
"........................",
"........................",
"...........++...........",
"..........++++..........",
".........++@@++.........",
"........++@..@++........",
"........@@....@@........",
"........................",
"........................",
"........................",
"........................",
"........................",
"........................",
"........................",
"........................",
"........................"};
