/* XPM */
static char * shade_toggled_pressed_xpm[] = {
"24 25 4 1",
" 	c None",
".	c #F7F7F7",
"+	c #E9E9E9",
"@	c #F956EF",
"........................",
"........................",
"........................",
"........................",
"........................",
"........................",
"........................",
"........................",
"........................",
"........................",
"........................",
"........++....++........",
"........@@+..+@@........",
".........@@++@@.........",
"..........@@@@..........",
"...........@@...........",
"........................",
"........................",
"........................",
"........................",
"........................",
"........................",
"........................",
"........................",
"........................"};
