/* XPM */
static char * stick_toggled_pressed_xpm[] = {
"24 25 4 1",
" 	c None",
".	c #F7F7F7",
"+	c #EF8835",
"@	c #E9E9E9",
"........................",
"........................",
"........................",
"........................",
"........................",
"........................",
"........................",
"........................",
".......++++++++++.......",
".......+........+.......",
".......+........+.......",
".......+..@++@..+.......",
".......+..++++..+.......",
".......+..++++..+.......",
".......+..@++@..+.......",
".......+........+.......",
".......+........+.......",
".......++++++++++.......",
"........................",
"........................",
"........................",
"........................",
"........................",
"........................",
"........................"};
