/* XPM */
static char * top_right_active_xpm[] = {
"6 63 3 1",
" 	c None",
".	c #9D9E9E",
"+	c #A3A9B1",
"......",
"+++++.",
"+++++.",
"+++++.",
"+++++.",
"+++++.",
"+++++.",
"+++++.",
"+++++.",
"+++++.",
"+++++.",
"+++++.",
"+++++.",
"+++++.",
"+++++.",
"+++++.",
"+++++.",
"+++++.",
"+++++.",
"+++++.",
"+++++.",
"+++++.",
"+++++.",
"+++++.",
"+++++.",
"     .",
"     .",
"     .",
"     .",
"     .",
"     .",
"     .",
"     .",
"     .",
"     .",
"     .",
"     .",
"     .",
"     .",
"     .",
"     .",
"     .",
"     .",
"     .",
"     .",
"     .",
"     .",
"     .",
"     .",
"     .",
"     .",
"     .",
"     .",
"     .",
"     .",
"     .",
"     .",
"     .",
"     .",
"     .",
"     .",
"     .",
"     ."};
