/* XPM */
static char * shade_toggled_prelight_xpm[] = {
"24 25 4 1",
" 	c None",
".	c #363636",
"+	c #373737",
"@	c #F956EF",
"........................",
"++++++++++++++++++++++++",
"++++++++++++++++++++++++",
"++++++++++++++++++++++++",
"++++++++++++++++++++++++",
"++++++++++++++++++++++++",
"++++++++++++++++++++++++",
"++++++++++++++++++++++++",
"++++++++++++++++++++++++",
"++++++++++++++++++++++++",
"++++++++++++++++++++++++",
"++++++++..++++..++++++++",
"++++++++@@.++.@@++++++++",
"+++++++++@@..@@+++++++++",
"++++++++++@@@@++++++++++",
"+++++++++++@@+++++++++++",
"++++++++++++++++++++++++",
"++++++++++++++++++++++++",
"++++++++++++++++++++++++",
"++++++++++++++++++++++++",
"++++++++++++++++++++++++",
"++++++++++++++++++++++++",
"++++++++++++++++++++++++",
"++++++++++++++++++++++++",
"++++++++++++++++++++++++"};
