/* XPM */
static char * top_right_active_xpm[] = {
"6 63 3 1",
" 	c None",
".	c #363636",
"+	c #373737",
"......",
"+++++.",
"+++++.",
"+++++.",
"+++++.",
"+++++.",
"+++++.",
"+++++.",
"+++++.",
"+++++.",
"+++++.",
"+++++.",
"+++++.",
"+++++.",
"+++++.",
"+++++.",
"+++++.",
"+++++.",
"+++++.",
"+++++.",
"+++++.",
"+++++.",
"+++++.",
"+++++.",
"+++++.",
"     .",
"     .",
"     .",
"     .",
"     .",
"     .",
"     .",
"     .",
"     .",
"     .",
"     .",
"     .",
"     .",
"     .",
"     .",
"     .",
"     .",
"     .",
"     .",
"     .",
"     .",
"     .",
"     .",
"     .",
"     .",
"     .",
"     .",
"     .",
"     .",
"     .",
"     .",
"     .",
"     .",
"     .",
"     .",
"     .",
"     .",
"     ."};
