/* XPM */
static char * bottom_left_inactive_xpm[] = {
"16 16 3 1",
" 	c None",
".	c #5E616E",
"+	c #5E616E",
".               ",
".               ",
".               ",
".               ",
".               ",
".               ",
".               ",
".               ",
".               ",
".               ",
".               ",
".               ",
".               ",
".               ",
".+++++++++++++++",
"                "};
