/* XPM */
static char * top_left_inactive_xpm[] = {
"6 63 6 1",
" 	c None",
".	c #191A1F",
"+	c #31343D",
"@	c #292B33",
"#	c #292B33",
"$	c #31343D",
"......",
"+@@@@@",
"+@@@@@",
"+@@@@@",
"+@@@@@",
"#@@@@@",
"#@@@@@",
"#@@@@@",
"#@@@@@",
"#@@@@@",
"#@@@@@",
"#@@@@@",
"#@@@@@",
"#@@@@@",
"#@@@@@",
"#@@@@@",
"#@@@@@",
"#@@@@@",
"#@@@@@",
"#@@@@@",
"#@@@@@",
"#@@@@@",
"#@@@@@",
".@@@@@",
"$@@@@@",
"$     ",
"$     ",
"$     ",
"$     ",
"$     ",
"$     ",
"$     ",
"$     ",
"$     ",
"$     ",
"$     ",
"$     ",
"$     ",
"$     ",
"$     ",
"$     ",
"$     ",
"$     ",
"$     ",
"$     ",
"$     ",
"$     ",
"$     ",
"$     ",
"$     ",
"$     ",
"$     ",
"$     ",
"$     ",
"$     ",
"$     ",
"$     ",
"$     ",
"$     ",
"$     ",
"$     ",
"$     ",
"$     "};
