/* XPM */
static char * menu_active_xpm[] = {
"16 25 4 1",
" 	c None",
".	c #191A1F",
"+	c #31343D",
"@	c #787878",
"................",
"++++++++++++++++",
"++++++++++++++++",
"++++++++++++++++",
"++++++++++++++++",
"++++++++++++++++",
"++++++++++++++++",
"++++++++++++++++",
"++++++++++++++++",
"++++++++++++++++",
"++++@@@@@@@@++++",
"++++@@@@@@@@++++",
"++++++++++++++++",
"++++++++++++++++",
"++++@@@@@@@@++++",
"++++@@@@@@@@++++",
"++++++++++++++++",
"++++++++++++++++",
"++++++++++++++++",
"++++++++++++++++",
"++++++++++++++++",
"++++++++++++++++",
"++++++++++++++++",
"++++++++++++++++",
"++++++++++++++++"};
