/* XPM */
static char * shade_inactive_xpm[] = {
"24 25 5 1",
" 	c None",
".	c #8B8B8B",
"+	c #31343D",
"@	c #C3C3C3",
"#	c #31343D",
"........................",
"++++++++++++++++++++++++",
"++++++++++++++++++++++++",
"++++++++++++++++++++++++",
"++++++++++++++++++++++++",
"++++++++++++++++++++++++",
"++++++++++++++++++++++++",
"++++++++++++++++++++++++",
"++++++++++++++++++++++++",
"++++++++++++++++++++++++",
"++++++++++++++++++++++++",
"+++++++++++@@+++++++++++",
"++++++++++@@@@++++++++++",
"+++++++++@@##@@+++++++++",
"++++++++@@#++#@@++++++++",
"++++++++##++++##++++++++",
"++++++++++++++++++++++++",
"++++++++++++++++++++++++",
"++++++++++++++++++++++++",
"++++++++++++++++++++++++",
"++++++++++++++++++++++++",
"++++++++++++++++++++++++",
"++++++++++++++++++++++++",
"++++++++++++++++++++++++",
"++++++++++++++++++++++++"};
