/* XPM */
static char * close_prelight_xpm[] = {
"25 25 4 1",
" 	c None",
".	c #363636",
"+	c #373737",
"@	c #C65252",
".........................",
"+++++++++++++++++++++++++",
"+++++++++++++++++++++++++",
"+++++++++++++++++++++++++",
"+++++++++++++++++++++++++",
"+++++++++++++++++++++++++",
"+++++++++++++++++++++++++",
"+++++++++++++++++++++++++",
"+++++++++++++++++++++++++",
"++++++++@@.+++.@@++++++++",
"++++++++@@@.+.@@@++++++++",
"++++++++.@@@.@@@.++++++++",
"+++++++++.@@@@@.+++++++++",
"++++++++++.@@@.++++++++++",
"+++++++++.@@@@@.+++++++++",
"++++++++.@@@.@@@.++++++++",
"++++++++@@@.+.@@@++++++++",
"++++++++@@.+++.@@++++++++",
"+++++++++++++++++++++++++",
"+++++++++++++++++++++++++",
"+++++++++++++++++++++++++",
"+++++++++++++++++++++++++",
"+++++++++++++++++++++++++",
"+++++++++++++++++++++++++",
"+++++++++++++++++++++++++"};
